<svg xmlns="http://www.w3.org/2000/svg" width="150" height="30" viewBox="0 0 150 30">
  <g fill="none" fill-rule="evenodd">
    <path fill="#E20B18" d="M47.8674872,12.5151724 C42.5239668,19.1353448 34.8036543,21.047069 29.2163074,27.3646552 L27.1442985,29.7796552 L26.9407653,29.6989655 C22.3085778,23.2603448 15.4411416,20.7046552 9.71173469,16.1374138 C4.73395408,11.6503448 0.853392857,6.43862069 0,0.120517241 C1.66649235,6.05637931 7.07045281,11.4087931 12.5157398,14.5277586 C17.5947704,17.4248276 23.2838839,19.7793103 26.9815753,24.9905172 L27.1442985,24.9905172 C32.9749554,16.922069 42.6257334,15.9362069 48.8836033,8.53137931 C51.220102,5.9762069 52.8860778,3.13913793 53.8004273,0 C53.5157908,4.78913793 50.7727423,8.73258621 47.8674872,12.5151724"/>
    <path fill="#024F9D" d="M17.2899872,9.67810345 C20.9267219,11.0467241 24.3604401,13.7027586 26.7578954,17.0425862 C27.0828253,17.1434483 27.2656952,16.6805172 27.489375,16.4793103 C30.1306569,12.957931 33.7265816,10.5837931 37.5260395,9.23586207 C43.3164031,7.24344828 48.9647066,4.86931034 53.5767474,0.0605172414 L53.6578508,0.0605172414 C51.6467985,4.64793103 47.5833673,9.11482759 42.9305166,11.2882759 C37.5058929,14.4067241 31.3699362,16.097069 26.9206186,21.267931 C20.9675319,14.4672414 12.3938265,13.5413793 5.87198342,7.94793103 C3.21055485,5.69431034 1.68663903,2.89758621 0.142576531,0.140689655 L0.182869898,0.0605172414 C5.05940051,5.13103448 11.1545472,7.50517241 17.2899872,9.67810345"/>
    <g fill="#1D1C1B" transform="translate(63 5)">
      <path d="M71.5899606 10.6873077C71.5899606 10.3992308 71.5905365 10.1111538 71.5893848 9.82288462 71.5891928 9.78615385 71.6074287 9.73673077 71.5732604 9.715 71.5291103 9.68673077 71.4978213 9.74057692 71.4667243 9.76038462 71.3603801 9.82807692 71.2477013 9.8825 71.1327191 9.93096154 70.7395911 10.0961538 70.320741 10.1628846 69.9045782 10.2271154 69.4684519 10.2946154 69.0290623 10.3430769 68.5937038 10.4173077 68.1266724 10.4971154 67.6769172 10.63 67.2649774 10.8717308 67.0154333 11.0182692 66.8063922 11.2044231 66.6681831 11.4657692 66.4330358 11.9109615 66.387542 12.38 66.4908149 12.865 66.5532009 13.1586538 66.7013917 13.4115385 66.9332757 13.6038462 67.3210289 13.9259615 67.7918994 14.0136538 68.2750552 14.0513462 68.6029177 14.0767308 68.9307803 14.0398077 69.2507726 13.9782692 69.8825031 13.8563462 70.4458969 13.5934615 70.9004511 13.1178846 71.351934 12.6455769 71.5830502 12.0884615 71.5895767 11.4363462 71.5920722 11.1867308 71.5899606 10.9369231 71.5899606 10.6873077L71.5899606 10.6873077zM86.9112007 15.6359615C86.8578366 15.6332692 86.8044726 15.6282692 86.7509166 15.6282692 82.1669834 15.6278846 77.5830502 15.6284615 72.999117 15.6273077 72.4643248 15.6271154 71.9982532 15.3115385 71.8166619 14.8059615 71.717804 14.5309615 71.6903542 14.2480769 71.6751896 13.9396154 71.5890009 14.03 71.5095307 14.1032692 71.4417698 14.1863462 71.1755255 14.5117308 70.8438238 14.7596154 70.4927344 14.9803846 70.1648719 15.1865385 69.8097514 15.3386538 69.436395 15.4453846 69.1563298 15.5253846 68.8708897 15.5728846 68.5816105 15.6076923 68.2873404 15.6430769 67.9919186 15.6401923 67.6995681 15.6225 67.2467415 15.5953846 66.802745 15.5073077 66.3790959 15.3290385 66.0531529 15.1921154 65.7546598 15.0136538 65.5005087 14.7709615 65.2586429 14.54 65.065918 14.2678846 64.9336597 13.9575 64.7908437 13.6223077 64.7038871 13.2725 64.6839236 12.9082692 64.6630003 12.5259615 64.6624244 12.1432692 64.7322968 11.765 64.8196372 11.2921154 65.0021883 10.8613462 65.3075919 10.4848077 65.6606008 10.0492308 66.1262885 9.77980769 66.637662 9.58307692 67.2202515 9.35903846 67.8256838 9.21807692 68.441098 9.11673077 68.7384394 9.06788462 69.0334773 9.00153846 69.3321624 8.96211538 69.6615606 8.91846154 69.9892312 8.86653846 70.3132546 8.79403846 70.6539783 8.71769231 70.9881754 8.61711538 71.2630579 8.38923077 71.4578942 8.22788462 71.5488819 8.00365385 71.5890009 7.75826923 71.642173 7.4325 71.5895767 7.11346154 71.4866878 6.80826923 71.3469431 6.3925 71.0632306 6.10403846 70.6528266 5.93307692 70.3581726 5.81038462 70.0529609 5.76615385 69.740263 5.73153846 69.5066513 5.70576923 69.2736155 5.70538462 69.0421154 5.71634615 68.5877531 5.73826923 68.1385738 5.80442308 67.7270179 6.01596154 67.2538439 6.25942308 66.9705154 6.65788462 66.834034 7.16519231 66.7850849 7.34730769 66.7493809 7.53307692 66.744582 7.7225 66.7432383 7.77442308 66.7232748 7.78846154 66.6760534 7.78846154 66.1619925 7.7875 65.6479317 7.78711538 65.1338708 7.78903846 65.0757078 7.78942308 65.0774355 7.76038462 65.0753239 7.71807692 65.0624628 7.45096154 65.1208177 7.19173077 65.1716863 6.93365385 65.2334965 6.61903846 65.3360015 6.31519231 65.4889913 6.03115385 65.7828774 5.48538462 66.1942413 5.05615385 66.7326807 4.74538462 67.2419426 4.45173077 67.7915155 4.29019231 68.3683463 4.20576923 68.6468759 4.165 68.927709 4.155 69.2070064 4.13 69.4605816 4.1075 69.7103177 4.13115385 69.9585181 4.14442308 70.5712448 4.17673077 71.1768692 4.26807692 71.7425665 4.52903846 72.244534 4.76076923 72.6514829 5.09884615 72.9127363 5.59692308 73.1066129 5.96673077 73.2054708 6.35884615 73.2367598 6.77615385 73.2553796 7.02538462 73.2525002 7.27346154 73.2528842 7.52173077 73.2555716 9.38557692 73.2540359 11.2494231 73.2548037 13.1132692 73.2548037 13.3215385 73.2667051 13.5286538 73.3217967 13.7321154 73.3885978 13.9796154 73.5406277 14.0226923 73.7471734 14.0521154 73.7773107 14.0565385 73.8085997 14.0528846 73.8393128 14.0528846 78.1431807 14.0528846 82.4470487 14.0528846 86.7509166 14.0525 86.8042806 14.0525 86.8578366 14.0475 86.9112007 14.0448077L86.9112007 15.6359615zM0 4.38323077C.0456857664 4.38592308.0913715328 4.39092308.137249256 4.39092308 4.50599866 4.39111538 8.87474806 4.39130769 13.2434975 4.39073077 13.4247049 4.39073077 13.4032057 4.41284615 13.4032057 4.23207692 13.4039735 3.22919231 13.4055092 2.22611538 13.4010942 1.22323077 13.4005183 1.11457692 13.432959 1.09034615 13.535848 1.0915 14.0115174 1.09669231 14.4871869 1.09592308 14.9626644 1.09169231 15.0467415 1.09092308 15.0707362 1.10861538 15.0703522 1.19746154 15.0667051 2.20419231 15.0680488 3.21111538 15.0680488 4.21784615 15.0680488 4.39092308 15.0682407 4.39111538 15.2360111 4.39111538 15.8343411 4.39111538 16.4326711 4.39342308 17.0310011 4.38880769 17.1241002 4.38803846 17.1423361 4.41630769 17.1415683 4.50323077 17.1373452 4.96053846 17.1367694 5.41784615 17.1421442 5.87496154 17.1431039 5.95803846 17.1150782 5.96784615 17.0453978 5.96746154 16.4317113 5.96553846 15.8180248 5.96842308 15.2043382 5.96419231 15.098378 5.96361538 15.0659372 5.99553846 15.0661292 6.10226923 15.0686246 8.34630769 15.066897 10.5905385 15.0705442 12.8345769 15.0707362 12.9922692 15.093579 13.1528462 15.1273635 13.3072692 15.1797677 13.5480385 15.3509934 13.6768846 15.5834533 13.7276538 15.7164795 13.7568846 15.8514253 13.7699615 15.9880987 13.7791923 16.3474422 13.8036154 16.7065937 13.799 17.0659372 13.7976538 17.129475 13.7974615 17.1409924 13.8193846 17.1408005 13.8770769 17.1386889 14.3536154 17.138497 14.8299615 17.1415683 15.3065 17.1419522 15.3680385 17.1181495 15.3751538 17.0680488 15.3749615 16.4925617 15.3738077 15.9164987 15.3922692 15.3421634 15.3678462 14.955178 15.3515 14.5676169 15.2915 14.2146079 15.1013077 13.8769556 14.9193846 13.6767444 14.6324615 13.5657933 14.2753462 13.4652078 13.9516923 13.4350705 13.6195769 13.4193301 13.2805385 13.4047413 12.9661154 13.4057011 12.6526538 13.4053172 12.339 13.4022459 10.264 13.4035896 8.189 13.4035896 6.114 13.4035896 5.9665 13.4033976 5.96630769 13.2550149 5.96630769 8.8785872 5.96630769 4.50215952 5.96630769.125731836 5.96669231.0836932527 5.96669231.0418466264 5.97169231 0 5.97419231L0 4.38323077M29.3363471 9.80578846C29.3108168 10.0498269 29.3557347 10.3729038 29.3914387 10.6927115 29.4407717 11.1340577 29.5313754 11.5709808 29.6908916 11.9888654 29.8815049 12.4884808 30.1346962 12.9446346 30.5403014 13.3105962 30.9558883 13.6855962 31.4449947 13.8677115 31.9891928 13.9104038 32.2654189 13.9321346 32.5445244 13.9223269 32.8205586 13.8694423 33.3415299 13.76925 33.7916691 13.5315577 34.1629139 13.1584808 34.4619829 12.8579038 34.6788943 12.4979038 34.8503119 12.1073269 35.153412 11.4163654 35.2676265 10.6859808 35.3123524 9.94194231 35.331932 9.61501923 35.309665 9.28713462 35.2735771 8.95944231 35.2229005 8.50021154 35.1334485 8.05271154 34.9708609 7.61982692 34.7656589 7.07309615 34.4642864 6.59425 33.9995585 6.23059615 33.5672713 5.89232692 33.0677992 5.74155769 32.5276322 5.71386538 32.2535176 5.69963462 31.9817065 5.72655769 31.711815 5.78059615 31.2397927 5.87501923 30.8282369 6.08636538 30.475036 6.41117308 30.0713504 6.78251923 29.818543 7.25040385 29.6382954 7.76040385 29.4137057 8.39559615 29.3382666 9.05482692 29.3363471 9.80578846M35.363221 5.93309615C35.3960457 5.88348077 35.3839524 5.84078846 35.3839524 5.80059615 35.3851041 5.37021154 35.3875996 4.93982692 35.3824167 4.50944231 35.381073 4.41155769 35.4112103 4.38809615 35.5050773 4.38905769 35.9461945 4.39386538 36.3875036 4.39463462 36.8286208 4.38867308 36.9311258 4.38732692 36.9597274 4.41136538 36.9595355 4.51790385 36.9562722 7.76521154 36.95704 11.0127115 36.95704 14.2600192 36.95704 14.4707885 36.9651022 14.6821346 36.9553124 14.8925192 36.9297821 15.4504038 36.8754583 16.0048269 36.7420482 16.54925 36.6598906 16.88425 36.555274 17.2123269 36.4101545 17.5238654 36.2583165 17.8496346 36.0696228 18.1540577 35.8352433 18.4319423 35.5027738 18.8261731 35.1059987 19.1327115 34.6466456 19.3563654 34.233938 19.5575192 33.7957002 19.6834808 33.3419138 19.7557885 32.8783377 19.8296346 32.4111143 19.8696346 31.9431231 19.8430962 31.6538439 19.82675 31.3649487 19.7905962 31.0766292 19.7404038 30.5610327 19.6505962 30.07327 19.4913654 29.6112295 19.2494423 29.0869949 18.9752115 28.6650734 18.5857885 28.3613974 18.0782885 28.1584989 17.7390577 28.0427488 17.3652115 27.9932239 16.9705962 27.9807467 16.8719423 27.974988 16.7746346 27.9709569 16.6757885 27.9686534 16.6205962 27.9890009 16.61175 28.0358384 16.61175 28.5460601 16.6127115 29.0562818 16.6132885 29.5665035 16.6111731 29.6229389 16.6109808 29.6390632 16.6350192 29.6438622 16.68425 29.698186 17.22925 29.9755639 17.6307885 30.4308859 17.9211731 30.8034744 18.1586731 31.2165659 18.2898269 31.6453978 18.3577115 32.0308475 18.4188654 32.4203282 18.4313654 32.8138401 18.37175 33.2052404 18.3123269 33.5693829 18.2007885 33.9087628 17.9973269 34.3120645 17.7555962 34.6034552 17.4111731 34.8272771 17.0069423 35.0914099 16.5302115 35.2269316 16.0077115 35.3090892 15.4746346 35.363605 15.1198269 35.3952779 14.7598269 35.3860639 14.3980962 35.3787696 14.10675 35.3847202 13.8148269 35.3847202 13.5223269 35.3338516 13.5204038 35.3154237 13.5477115 35.3016028 13.5804038 35.0568577 14.1557885 34.6502927 14.5927115 34.135656 14.9329038 33.7097034 15.2144423 33.2351857 15.3796346 32.7353297 15.4611731 32.5078606 15.4982885 32.2752088 15.5255962 32.042173 15.5123269 31.4540167 15.4786731 30.8789135 15.3865577 30.3347154 15.1434808 29.9289183 14.9623269 29.5657357 14.7234808 29.2372972 14.4221346 28.6769748 13.9079038 28.2930608 13.2809808 28.0199059 12.5788654 27.8623092 12.1738654 27.7482868 11.7555962 27.6778386 11.3280962 27.6190997 10.9709808 27.5674633 10.6113654 27.5801325 10.2461731 27.5839716 10.1365577 27.5528746 10.0277115 27.5580574 9.91598077 27.586659 9.28194231 27.6304252 8.65194231 27.7822632 8.03059615 27.9218159 7.45925 28.1158844 6.91328846 28.3971014 6.39771154 28.6572032 5.92098077 28.9933199 5.50328846 29.3973894 5.14405769 29.7778482 4.80578846 30.2130147 4.55540385 30.6965544 4.39040385 31.0520587 4.26905769 31.4150494 4.19559615 31.7893656 4.15655769 32.3696516 4.09617308 32.9361167 4.13578846 33.4902966 4.32136538 34.0479317 4.50828846 34.5155389 4.83271154 34.9021403 5.27271154 35.0676073 5.46098077 35.2056243 5.67098077 35.3259814 5.89175 35.3328918 5.90444231 35.345753 5.91405769 35.363221 5.93309615M56.6773395 5.99201923C56.7817641 5.85163462 56.8740954 5.72355769 56.9706498 5.59836538 57.2833477 5.19240385 57.6595835 4.85836538 58.1064594 4.60605769 58.5078414 4.37951923 58.9366734 4.22913462 59.3923793 4.16451923 59.741933 4.11490385 60.0930224 4.12009615 60.4458393 4.15605769 60.7704386 4.18894231 61.0879355 4.24394231 61.3998656 4.34144231 61.8868605 4.49355769 62.3051348 4.75240385 62.6400998 5.13701923 62.8508686 5.37913462 62.9994433 5.65951923 63.1059795 5.96451923 63.2891064 6.48836538 63.3142528 7.02855769 63.313293 7.57663462 63.3084941 10.14375 63.3106056 12.7108654 63.313485 15.2779808 63.3136769 15.3650962 63.2858432 15.3764423 63.210596 15.3758654 62.7272483 15.3727885 62.2439006 15.3710577 61.7605528 15.3770192 61.6609272 15.3783654 61.6444189 15.3483654 61.6446108 15.2560577 61.6472982 12.83875 61.6517132 10.4216346 61.6426912 8.00451923 61.6407717 7.51317308 61.581265 7.02336538 61.349189 6.57394231 61.1441789 6.17625 60.8218831 5.92644231 60.3955466 5.80663462 60.0774738 5.71721154 59.750955 5.68971154 59.4242442 5.71548077 58.7512429 5.76836538 58.1435071 5.98663462 57.670525 6.49240385 57.3766388 6.80682692 57.1858336 7.18259615 57.0743066 7.59817308 56.98735 7.92182692 56.9558691 8.25067308 56.956445 8.58644231 56.9604761 10.8000962 56.9585565 13.0135577 56.9585565 15.2270192 56.9585565 15.3743269 56.9583645 15.3743269 56.8094059 15.3743269 56.3375756 15.3743269 55.8657453 15.3708654 55.393915 15.3770192 55.2885306 15.3783654 55.268951 15.3449038 55.268951 15.2470192 55.2716384 12.78375 55.2725981 10.3202885 55.2697188 7.85701923 55.2691429 7.41990385 55.1906325 6.99528846 54.996372 6.59913462 54.7579614 6.11278846 54.3615702 5.84778846 53.8333045 5.75644231 53.2261445 5.65144231 52.6477781 5.72932692 52.10358 6.01548077 51.7630483 6.19432692 51.4814474 6.44701923 51.2526346 6.76028846 50.9524139 7.17144231 50.7470199 7.62432692 50.6404837 8.12067308 50.6193685 8.21894231 50.6045878 8.32125 50.6045878 8.42509615 50.6063154 10.6924038 50.6059315 12.9597115 50.6059315 15.2270192 50.6059315 15.3743269 50.6057395 15.3743269 50.4569728 15.3743269 49.9851425 15.3743269 49.5133122 15.3722115 49.0414819 15.37625 48.9508782 15.3770192 48.916134 15.3600962 48.9163259 15.2585577 48.9190133 11.6731731 48.9188214 8.08759615 48.9163259 4.50221154 48.916134 4.40625 48.9485747 4.38875 49.0345715 4.38951923 49.4872061 4.39317308 49.9398407 4.39336538 50.3924753 4.38913462 50.4736731 4.38836538 50.4934447 4.41009615 50.4928688 4.49048077 50.4886457 4.95163462 50.4903734 5.41278846 50.4915251 5.87394231 50.4917171 5.91644231 50.4707937 5.97932692 50.5308763 5.99048077 50.5759862 5.99894231 50.590383 5.94105769 50.6130339 5.90663462 50.8251464 5.58413462 51.0696996 5.29221154 51.3612823 5.03548077 51.6388521 4.79105769 51.9448316 4.59875 52.2788367 4.44932692 52.5761781 4.31625 52.8886841 4.23394231 53.2109799 4.17951923 53.4213648 4.14394231 53.6334773 4.13567308 53.8438622 4.12105769 54.0346674 4.10778846 54.2306555 4.13548077 54.4214608 4.16451923 54.7888665 4.22028846 55.1449467 4.31894231 55.4735771 4.50028846 55.8839812 4.72644231 56.2093483 5.03836538 56.4410404 5.44836538 56.5356752 5.61605769 56.6088108 5.79240385 56.6773395 5.99201923M43.0500432 8.81846154L45.8693157 8.81846154C45.9038679 8.81846154 45.9384202 8.81788462 45.9727805 8.81711538 46.0079086 8.81634615 46.019426 8.795 46.0157789 8.76384615 45.9988866 8.62596154 45.9871773 8.48711538 45.9631826 8.35038462 45.8927344 7.94653846 45.7575967 7.56442308 45.555466 7.20807692 45.3621653 6.8675 45.1220271 6.56211538 44.8114406 6.32288462 44.4265668 6.02634615 43.997543 5.83019231 43.510548 5.75211538 43.1552356 5.69519231 42.8041463 5.69942308 42.4574719 5.76653846 41.8773779 5.87884615 41.3865438 6.15942308 40.9836261 6.60038462 40.6814857 6.93115385 40.4732124 7.3125 40.3204146 7.72673077 40.206968 8.03442308 40.1503407 8.35653846 40.1052308 8.68192308 40.0871869 8.81173077 40.1219311 8.82096154 40.2307707 8.82057692 41.1705922 8.81692308 42.1102217 8.81846154 43.0500432 8.81846154M43.9447548 10.4167308C42.7018332 10.4167308 41.4591036 10.4180769 40.2163739 10.4142308 40.1079182 10.4138462 40.0839236 10.4467308 40.0850753 10.5492308 40.0923697 11.2080769 40.2044726 11.8434615 40.5025818 12.4361538 40.9135618 13.2534615 41.5700547 13.7605769 42.4605432 13.9590385 42.8024187 14.0351923 43.1510126 14.0757692 43.5013341 14.0507692 44.0480276 14.0117308 44.5665035 13.8759615 45.0135714 13.54 45.3711873 13.2713462 45.6184279 12.9163462 45.7852385 12.5046154 45.854343 12.3336538 45.9230636 12.1613462 45.9507054 11.9765385 45.9585757 11.9246154 45.9898647 11.9065385 46.0459161 11.9069231 46.5522987 11.9094231 47.0586813 11.9090385 47.5648719 11.9075 47.6230348 11.9073077 47.6441501 11.9136538 47.6305212 11.9834615 47.5310874 12.4911538 47.3690757 12.9767308 47.131049 13.4361538 46.9625108 13.7613462 46.7592283 14.0661538 46.5046933 14.3276923 45.9758518 14.8711538 45.3443133 15.2525 44.6131491 15.4594231 44.02864 15.6248077 43.4280065 15.6623077 42.8271811 15.6230769 42.1117574 15.5761538 41.4245513 15.4013462 40.7960841 15.0411538 40.5392456 14.8938462 40.3023707 14.7186538 40.0808523 14.5180769 39.5965448 14.0790385 39.2412324 13.5511538 38.9688454 12.9626923 38.7621077 12.5161538 38.6194836 12.0475 38.5173625 11.5671154 38.4463384 11.2323077 38.4041079 10.8932692 38.3718591 10.5515385 38.3378827 10.1905769 38.3177272 9.82980769 38.3328918 9.46884615 38.3655245 8.69846154 38.5127555 7.94846154 38.8018428 7.23269231 39.0183703 6.69634615 39.3095691 6.2025 39.6863807 5.75846154 40.1436222 5.21903846 40.6814857 4.78942308 41.3291487 4.50596154 41.6961705 4.34538462 42.0791247 4.23653846 42.4787792 4.17730769 42.7049045 4.14384615 42.9333333 4.12557692 43.1573472 4.12423077 43.3732988 4.12307692 43.5944332 4.145 43.8130723 4.17711538 44.1136769 4.22134615 44.4064114 4.2875 44.6908916 4.39038462 45.1404549 4.55288462 45.5424129 4.79557692 45.9067473 5.10769231 46.4290623 5.555 46.8250696 6.09519231 47.1153086 6.71461538 47.3255015 7.16326923 47.4819464 7.63153846 47.5898263 8.11538462 47.6658413 8.45596154 47.7218927 8.79884615 47.7570208 9.14711538 47.7952203 9.52596154 47.8178712 9.90403846 47.8234379 10.2844231 47.8249736 10.3948077 47.787542 10.4190385 47.6844611 10.4186538 46.4378923 10.4155769 45.1913235 10.4167308 43.9447548 10.4167308M18.3292446 9.87069231C18.3292446 8.09165385 18.3303964 6.31261538 18.3263653 4.53357692 18.3261733 4.41665385 18.3549669 4.38626923 18.4716767 4.38819231 18.912602 4.3955 19.3537192 4.39357692 19.7948364 4.38915385 19.8825607 4.38838462 19.903676 4.41511538 19.9032921 4.50011538 19.9000288 5.18011538 19.9015644 5.86030769 19.9015644 6.54030769 19.9015644 6.57107692 19.9007966 6.60184615 19.9023323 6.63261538 19.903484 6.65415385 19.8967655 6.68280769 19.9270947 6.68915385 19.9593435 6.69588462 19.9733564 6.67165385 19.9842979 6.64569231 20.0762453 6.42915385 20.1979461 6.22896154 20.3146559 6.02511538 20.4488339 5.79069231 20.5997121 5.56684615 20.7768884 5.36723077 21.09093 5.01319231 21.434725 4.68684615 21.8720031 4.48473077 22.1879643 4.33876923 22.5144832 4.2255 22.8638449 4.18030769 23.1124292 4.14819231 23.3602457 4.11857692 23.6111335 4.113 23.6967463 4.11107692 23.7241962 4.14030769 23.7238123 4.22588462 23.7209329 4.79453846 23.7201651 5.36319231 23.7245801 5.93184615 23.725156 6.02453846 23.6902198 6.03684615 23.6103657 6.03723077 23.0536904 6.03973077 22.510836 6.12223077 21.9921682 6.33473077 21.550859 6.51569231 21.1807659 6.79146154 20.8805452 7.16376923 20.5868509 7.528 20.3985411 7.94203846 20.265323 8.38819231 20.1639697 8.72723077 20.1021595 9.07146154 20.059929 9.42184615 20.0322872 9.65203846 20.0219215 9.88165385 20.015203 10.113 19.9649103 11.8251154 20.0075247 13.5376154 19.9958153 15.2501154 19.9952395 15.3456923 19.9806507 15.3789615 19.8743066 15.3774231 19.3988291 15.3703077 18.9231596 15.3716538 18.4474902 15.3766538 18.3503599 15.3776154 18.3271331 15.3483846 18.3273251 15.2539615 18.3300125 13.4595385 18.3292446 11.6651154 18.3292446 9.87069231M26.1160572 9.88226923C26.1160572 11.6730385 26.1149055 13.4636154 26.1189366 15.2543846 26.1191285 15.3601538 26.0887993 15.3776538 25.9924369 15.3766923 25.5167674 15.3715 25.041098 15.3720769 24.5656205 15.3763077 24.4754007 15.3770769 24.4496785 15.3528462 24.4496785 15.2611154 24.451982 11.6759231 24.451982 8.09053846 24.4498704 4.50534615 24.4498704 4.41534615 24.4727133 4.38823077 24.5646607 4.389 25.0480084 4.39361538 25.5313562 4.39419231 26.0145119 4.38861538 26.1064594 4.38746154 26.1177848 4.41803846 26.1177848 4.49861538 26.1154813 6.29323077 26.1160572 8.08765385 26.1160572 9.88226923M26.1160764 1.29946154C26.1160764 1.62984615 26.1137729 1.96023077 26.117804 2.29061538 26.1187638 2.36715385 26.1053268 2.39523077 26.0202899 2.39446154 25.5332949 2.38984615 25.0463 2.39023077 24.5593051 2.39426923 24.4727325 2.39484615 24.4493138 2.37023077 24.4498896 2.28407692 24.4533449 1.62330769 24.4533449.962538462 24.4496977.301769231 24.4493138.214653846 24.4744601.191961538 24.559881.192538462 25.0468759.196576923 25.5338708.196961538 26.0208657.192153846 26.1070544.191384615 26.1185718.221384615 26.117804.296769231 26.1137729.631 26.1160764.965230769 26.1160764 1.29946154"/>
    </g>
  </g>
</svg>
